# xmcd CD database file
#
# Track frame offsets:
#	183
#	14523
#	32938
#	52473
#	70533
#	94470
#	107793
#	125785
#	146820
#	170555
#
# Disc length: 2637 seconds
#
# Revision: 10
# Processed by: cddbd v1.5.2PL0 Copyright (c) Steve Scherf et al.
# Submitted via: jetAudio 7
#
DISCID=9e0a4b0a
DTITLE=Travis Tritt - Country Club
DYEAR=1990
DGENRE=Country
TTITLE0=Country club
TTITLE1=I'm gonna be somebody
TTITLE2=Put some drive in your country
TTITLE3=Help me hold on
TTITLE4=Sign of the times
TTITLE5=Son of the new south
TTITLE6=If I were a drinker
TTITLE7=The road home
TTITLE8=Drift off to dream
TTITLE9=Dixie flyer
EXTD=
EXTT0=
EXTT1=
EXTT2=
EXTT3=
EXTT4=
EXTT5=
EXTT6=
EXTT7=
EXTT8=
EXTT9=
PLAYORDER=
